<svg xmlns="http://www.w3.org/2000/svg"  viewBox="0 0 50 50" width="50px" height="50px"><path d="M 25 2 C 20.94188 2 18.198605 2.9658493 16.449219 4.3710938 C 14.699833 5.7763381 14 7.5940538 14 9.0996094 L 14 14 L 24 14 L 24 15 L 9.0996094 15 C 7.2700395 15 5.4173831 15.805112 4.1015625 17.482422 C 2.7857419 19.159732 2 21.64375 2 25 C 2 28.35625 2.7857419 30.840268 4.1015625 32.517578 C 5.4173831 34.194888 7.2700395 35 9.0996094 35 L 14 35 L 14 40.900391 C 14 42.405946 14.699833 44.223662 16.449219 45.628906 C 18.198605 47.034151 20.94188 48 25 48 C 29.05812 48 31.801395 47.034151 33.550781 45.628906 C 35.300167 44.223662 36 42.405946 36 40.900391 L 36 36 L 26 36 L 26 35 L 40.900391 35 C 42.729961 35 44.582617 34.194888 45.898438 32.517578 C 47.214258 30.840268 48 28.35625 48 25 C 48 21.64375 47.214258 19.159732 45.898438 17.482422 C 44.582617 15.805112 42.729961 15 40.900391 15 L 36 15 L 36 9.0996094 C 36 7.556276 35.299913 5.7238872 33.546875 4.3300781 C 31.793837 2.936269 29.053846 2 25 2 z M 25 4 C 28.746154 4 31.005773 4.8633404 32.302734 5.8945312 C 33.599696 6.9257221 34 8.1429427 34 9.0996094 L 34 15 L 34 21 C 34 22.447727 32.96946 23.659304 31.603516 23.939453 C 31.408381 23.979474 31.206818 24 31 24 L 19 24 C 16.254545 24 14 26.254545 14 29 L 14 33 L 9.0996094 33 C 7.8291793 33 6.6330075 32.505893 5.6738281 31.283203 C 4.7146488 30.060513 4 28.04375 4 25 C 4 21.95625 4.7146488 19.939487 5.6738281 18.716797 C 6.6330075 17.494107 7.8291793 17 9.0996094 17 L 26 17 L 26 12 L 16 12 L 16 9.0996094 C 16 8.2051649 16.400558 6.974443 17.701172 5.9296875 C 19.001786 4.884932 21.25812 4 25 4 z M 20 7 C 18.9 7 18 7.9 18 9 C 18 10.1 18.9 11 20 11 C 21.1 11 22 10.1 22 9 C 22 7.9 21.1 7 20 7 z M 36 17 L 40.900391 17 C 42.170821 17 43.366993 17.494107 44.326172 18.716797 C 45.285351 19.939487 46 21.95625 46 25 C 46 28.04375 45.285351 30.060513 44.326172 31.283203 C 43.366993 32.505893 42.170821 33 40.900391 33 L 24 33 L 24 38 L 34 38 L 34 40.900391 C 34 41.794835 33.599442 43.025557 32.298828 44.070312 C 30.998214 45.115068 28.74188 46 25 46 C 21.25812 46 19.001786 45.115068 17.701172 44.070312 C 16.400558 43.025557 16 41.794835 16 40.900391 L 16 29 C 16 28.793182 16.020526 28.591619 16.060547 28.396484 C 16.340696 27.03054 17.552273 26 19 26 L 31 26 C 31.171591 26 31.340487 25.991792 31.507812 25.974609 C 34.017689 25.716864 36 23.573864 36 21 L 36 17 z M 30 39 C 28.9 39 28 39.9 28 41 C 28 42.1 28.9 43 30 43 C 31.1 43 32 42.1 32 41 C 32 39.9 31.1 39 30 39 z"/></svg>